<mxfile host="Electron" modified="2023-08-01T13:47:16.822Z" agent="Mozilla/5.0 (Windows NT 10.0; Win64; x64) AppleWebKit/537.36 (KHTML, like Gecko) draw.io/21.6.5 Chrome/114.0.5735.243 Electron/25.3.1 Safari/537.36" etag="LEcsC1RNXPO5tFeeCpWu" version="21.6.5" type="device">
  <diagram name="Page-1" id="vt5yjjhm51fZT4dJ0A-k">
    <mxGraphModel dx="880" dy="511" grid="1" gridSize="10" guides="1" tooltips="1" connect="1" arrows="1" fold="1" page="1" pageScale="1" pageWidth="1169" pageHeight="827" math="0" shadow="0">
      <root>
        <mxCell id="0" />
        <mxCell id="1" parent="0" />
        <mxCell id="J2cs2plqDJsmne1QL_vC-1" value="&lt;b&gt;&lt;i&gt;Shape&lt;/i&gt;&lt;/b&gt;" style="html=1;whiteSpace=wrap;" vertex="1" parent="1">
          <mxGeometry x="160" y="40" width="110" height="40" as="geometry" />
        </mxCell>
        <mxCell id="J2cs2plqDJsmne1QL_vC-5" value="&lt;b&gt;&lt;span style=&quot;font-style: normal;&quot;&gt;Polygon&lt;/span&gt;&lt;/b&gt;" style="html=1;whiteSpace=wrap;fontStyle=2" vertex="1" parent="1">
          <mxGeometry x="40" y="160" width="110" height="40" as="geometry" />
        </mxCell>
        <mxCell id="J2cs2plqDJsmne1QL_vC-6" value="&lt;b&gt;Ellipse&lt;/b&gt;" style="html=1;whiteSpace=wrap;" vertex="1" parent="1">
          <mxGeometry x="160" y="160" width="110" height="40" as="geometry" />
        </mxCell>
        <mxCell id="J2cs2plqDJsmne1QL_vC-7" value="&lt;b&gt;Spline&lt;/b&gt;" style="html=1;whiteSpace=wrap;" vertex="1" parent="1">
          <mxGeometry x="280" y="160" width="110" height="40" as="geometry" />
        </mxCell>
        <mxCell id="J2cs2plqDJsmne1QL_vC-8" value="&lt;b&gt;&lt;i&gt;Shape&lt;/i&gt;&lt;/b&gt;" style="html=1;whiteSpace=wrap;" vertex="1" parent="1">
          <mxGeometry x="160" y="280" width="110" height="40" as="geometry" />
        </mxCell>
        <mxCell id="J2cs2plqDJsmne1QL_vC-9" value="&lt;b&gt;&lt;span style=&quot;font-style: normal;&quot;&gt;Polygon&lt;/span&gt;&lt;/b&gt;" style="html=1;whiteSpace=wrap;fontStyle=2" vertex="1" parent="1">
          <mxGeometry x="40" y="400" width="110" height="40" as="geometry" />
        </mxCell>
        <mxCell id="J2cs2plqDJsmne1QL_vC-10" value="&lt;b&gt;Ellipse&lt;/b&gt;" style="html=1;whiteSpace=wrap;" vertex="1" parent="1">
          <mxGeometry x="160" y="400" width="110" height="40" as="geometry" />
        </mxCell>
        <mxCell id="J2cs2plqDJsmne1QL_vC-11" value="&lt;b&gt;Spline&lt;/b&gt;" style="html=1;whiteSpace=wrap;" vertex="1" parent="1">
          <mxGeometry x="280" y="400" width="110" height="40" as="geometry" />
        </mxCell>
        <mxCell id="J2cs2plqDJsmne1QL_vC-13" value="" style="endArrow=block;startArrow=none;endFill=0;startFill=0;endSize=8;html=1;verticalAlign=bottom;labelBackgroundColor=none;rounded=0;entryX=0.25;entryY=1;entryDx=0;entryDy=0;exitX=0.5;exitY=0;exitDx=0;exitDy=0;" edge="1" parent="1" source="J2cs2plqDJsmne1QL_vC-5" target="J2cs2plqDJsmne1QL_vC-1">
          <mxGeometry width="160" relative="1" as="geometry">
            <mxPoint x="370" y="270" as="sourcePoint" />
            <mxPoint x="530" y="270" as="targetPoint" />
          </mxGeometry>
        </mxCell>
        <mxCell id="J2cs2plqDJsmne1QL_vC-14" value="" style="endArrow=block;startArrow=none;endFill=0;startFill=0;endSize=8;html=1;verticalAlign=bottom;labelBackgroundColor=none;rounded=0;entryX=0.5;entryY=1;entryDx=0;entryDy=0;exitX=0.5;exitY=0;exitDx=0;exitDy=0;" edge="1" parent="1" source="J2cs2plqDJsmne1QL_vC-6" target="J2cs2plqDJsmne1QL_vC-1">
          <mxGeometry width="160" relative="1" as="geometry">
            <mxPoint x="105" y="170" as="sourcePoint" />
            <mxPoint x="225" y="90" as="targetPoint" />
          </mxGeometry>
        </mxCell>
        <mxCell id="J2cs2plqDJsmne1QL_vC-15" value="" style="endArrow=block;startArrow=none;endFill=0;startFill=0;endSize=8;html=1;verticalAlign=bottom;labelBackgroundColor=none;rounded=0;entryX=0.75;entryY=1;entryDx=0;entryDy=0;exitX=0.5;exitY=0;exitDx=0;exitDy=0;" edge="1" parent="1" source="J2cs2plqDJsmne1QL_vC-7" target="J2cs2plqDJsmne1QL_vC-1">
          <mxGeometry width="160" relative="1" as="geometry">
            <mxPoint x="225" y="170" as="sourcePoint" />
            <mxPoint x="225" y="90" as="targetPoint" />
          </mxGeometry>
        </mxCell>
        <mxCell id="J2cs2plqDJsmne1QL_vC-16" value="" style="endArrow=block;startArrow=none;endFill=0;startFill=0;endSize=8;html=1;verticalAlign=bottom;labelBackgroundColor=none;rounded=0;entryX=0.5;entryY=1;entryDx=0;entryDy=0;exitX=0.5;exitY=0;exitDx=0;exitDy=0;edgeStyle=orthogonalEdgeStyle;" edge="1" parent="1" source="J2cs2plqDJsmne1QL_vC-9" target="J2cs2plqDJsmne1QL_vC-8">
          <mxGeometry width="160" relative="1" as="geometry">
            <mxPoint x="105" y="410" as="sourcePoint" />
            <mxPoint x="198" y="330" as="targetPoint" />
          </mxGeometry>
        </mxCell>
        <mxCell id="J2cs2plqDJsmne1QL_vC-17" value="" style="endArrow=block;startArrow=none;endFill=0;startFill=0;endSize=8;html=1;verticalAlign=bottom;labelBackgroundColor=none;rounded=0;entryX=0.5;entryY=1;entryDx=0;entryDy=0;exitX=0.5;exitY=0;exitDx=0;exitDy=0;edgeStyle=orthogonalEdgeStyle;" edge="1" parent="1" source="J2cs2plqDJsmne1QL_vC-10" target="J2cs2plqDJsmne1QL_vC-8">
          <mxGeometry width="160" relative="1" as="geometry">
            <mxPoint x="105" y="410" as="sourcePoint" />
            <mxPoint x="225" y="330" as="targetPoint" />
          </mxGeometry>
        </mxCell>
        <mxCell id="J2cs2plqDJsmne1QL_vC-18" value="" style="endArrow=block;startArrow=none;endFill=0;startFill=0;endSize=8;html=1;verticalAlign=bottom;labelBackgroundColor=none;rounded=0;entryX=0.5;entryY=1;entryDx=0;entryDy=0;exitX=0.5;exitY=0;exitDx=0;exitDy=0;edgeStyle=orthogonalEdgeStyle;" edge="1" parent="1" source="J2cs2plqDJsmne1QL_vC-11" target="J2cs2plqDJsmne1QL_vC-8">
          <mxGeometry width="160" relative="1" as="geometry">
            <mxPoint x="105" y="410" as="sourcePoint" />
            <mxPoint x="225" y="330" as="targetPoint" />
          </mxGeometry>
        </mxCell>
      </root>
    </mxGraphModel>
  </diagram>
</mxfile>
